<svg width="126" height="119" viewBox="0 0 126 119" fill="none" xmlns="http://www.w3.org/2000/svg">
<g filter="url(#filter0_d_536_1275)">
<rect x="20" y="20" width="86" height="79" rx="20" fill="white"/>
<rect x="21" y="21" width="84" height="77" rx="19" stroke="#E24648" stroke-width="2"/>
</g>
<circle cx="100.5" cy="22.5" r="12.5" fill="#E24648"/>
<path d="M104.351 28.6114H97.0123V27.4809L100.369 23.9505C100.948 23.3476 101.372 22.8896 101.638 22.5766C101.905 22.2635 102.143 21.8925 102.351 21.4635C102.572 21.0345 102.682 20.6056 102.682 20.1766C102.682 19.4345 102.479 18.9128 102.073 18.6114C101.667 18.3099 101.035 18.1592 100.177 18.1592C99.4239 18.1592 98.5833 18.2577 97.6557 18.4548L97.2036 18.5418L97.0992 17.4287C98.2007 17.1157 99.3369 16.9592 100.508 16.9592C101.679 16.9592 102.56 17.2085 103.151 17.707C103.754 18.194 104.056 18.9708 104.056 20.0374C104.056 20.849 103.876 21.5563 103.517 22.1592C103.157 22.7621 102.537 23.4867 101.656 24.3331L98.5949 27.4461H104.351V28.6114Z" fill="white"/>
<g clip-path="url(#clip0_536_1275)">
<path d="M42.2623 40C41.6307 40 41.0693 40.5147 40.9991 41.1765C40.9289 41.8382 41.4202 42.4265 42.0517 42.5735L45.771 43.6029L54.3325 65.4412L51.3149 67.9412C51.3149 67.9412 51.3149 67.9412 51.2447 68.0147C49.8412 69.1176 49.1395 70.8824 49.5605 72.5C49.5605 72.5 49.5605 72.5 49.5605 72.5735C50.0518 73.8235 50.8939 74.5588 51.8763 75C50.7535 75.2206 49.9114 76.3235 49.9114 77.5C49.9114 78.8971 51.0342 80.0735 52.3675 80.0735C53.7009 80.0735 54.8237 78.8971 54.8237 77.5C54.8237 76.5441 54.3325 75.6618 53.5605 75.2206L74.4026 75.2941C73.7009 75.7353 73.2798 76.5441 73.2798 77.5C73.2798 78.8971 74.4026 80.0735 75.736 80.0735C77.0693 80.0735 78.1921 78.8971 78.1921 77.5C78.1921 76.6176 77.7009 75.8088 77.0693 75.2941H78.8939C79.5254 75.2941 80.0868 74.7059 80.157 74.0441C80.157 73.3824 79.5956 72.7941 78.964 72.7941L53.7009 72.7206H53.6307C52.9991 72.7941 52.5781 72.6471 52.3675 72.5C52.157 72.3529 52.0167 72.1324 52.0167 71.9118C51.8763 71.4706 52.0868 70.6618 52.8588 70.0735L57.0693 66.6176L78.2623 64.8529C78.8237 64.7794 79.3149 64.3382 79.3851 63.75L80.9991 49.3382C81.0693 48.9706 80.929 48.6029 80.7184 48.3824C80.5079 48.1618 80.157 47.9412 79.8061 47.9412L50.0518 47.1324L47.736 41.9853C47.5956 41.5441 47.2447 41.25 46.8237 41.1765L42.4026 40C42.3325 40 42.3325 40 42.2623 40ZM50.964 49.1176L54.8939 49.1912V53.6765H52.6482L50.964 49.1176ZM55.8061 49.2647L59.9465 49.3382V53.6765H55.8061V49.2647ZM64.8588 49.4853V53.75H60.7184V49.4118L64.8588 49.4853ZM65.7009 49.4853L69.8412 49.5588V53.6765H65.7009V49.4853ZM74.8237 49.7059V53.6765H70.6833V49.5588L74.8237 49.7059ZM75.6658 49.7794L79.1044 49.8529L78.6833 53.75H75.6658V49.7794ZM78.6132 54.6324L78.1219 58.6765H75.6658V54.6324H78.6132ZM74.8237 58.6765H70.6833V54.6324H74.8237V58.6765ZM69.8412 58.6765H65.7009V54.6324H69.8412V58.6765ZM64.8588 58.6765H60.7184V54.6324H64.8588V58.6765ZM59.8763 58.6765H55.736V54.6324H59.8763V58.6765ZM54.8939 58.6765H54.4728L52.9991 54.6324H54.8939V58.6765ZM78.0518 59.5588L77.7711 62.2794L75.736 62.4265V59.5588H78.0518ZM74.8237 59.5588V62.5L70.6833 62.8676V59.5588H74.8237ZM69.8412 62.9412L65.7009 63.3088V59.5588H69.8412V62.9412ZM64.8588 59.5588V63.3824L60.7184 63.75V59.6324L64.8588 59.5588ZM59.8763 59.5588V63.75L56.8588 63.9706C56.7184 63.9706 56.6482 64.0441 56.5079 64.0441L55.736 61.9118V59.4853L59.8763 59.5588ZM54.8939 59.7059L54.8237 59.5588H54.8939V59.7059ZM77.2798 77.4265C77.2798 78.2353 76.6482 78.9706 75.8061 78.9706C74.964 78.9706 74.3325 78.3088 74.3325 77.4265C74.3325 76.6176 74.964 75.8824 75.8061 75.8824C76.5781 75.8824 77.2798 76.6176 77.2798 77.4265ZM53.9114 77.4265C53.9114 78.2353 53.2798 78.9706 52.4377 78.9706C51.5956 78.9706 50.964 78.3088 50.964 77.4265C50.964 76.6176 51.5956 75.8824 52.4377 75.8824C53.2798 75.8824 53.9114 76.6176 53.9114 77.4265ZM75.0342 77.4265C75.0342 77.8676 75.3851 78.2353 75.8061 78.2353C76.2272 78.2353 76.5781 77.8676 76.5781 77.4265C76.5781 76.9853 76.2272 76.6176 75.8061 76.6176C75.3851 76.6176 75.0342 76.9853 75.0342 77.4265ZM51.6658 77.4265C51.6658 77.8676 52.0167 78.2353 52.4377 78.2353C52.8588 78.2353 53.2096 77.8676 53.2096 77.4265C53.2096 76.9853 52.8588 76.6176 52.4377 76.6176C52.0167 76.6176 51.6658 76.9853 51.6658 77.4265Z" fill="#CD5351"/>
</g>
<defs>
<filter id="filter0_d_536_1275" x="0" y="0" width="126" height="119" filterUnits="userSpaceOnUse" color-interpolation-filters="sRGB">
<feFlood flood-opacity="0" result="BackgroundImageFix"/>
<feColorMatrix in="SourceAlpha" type="matrix" values="0 0 0 0 0 0 0 0 0 0 0 0 0 0 0 0 0 0 127 0" result="hardAlpha"/>
<feOffset/>
<feGaussianBlur stdDeviation="10"/>
<feComposite in2="hardAlpha" operator="out"/>
<feColorMatrix type="matrix" values="0 0 0 0 0 0 0 0 0 0 0 0 0 0 0 0 0 0 0.1 0"/>
<feBlend mode="normal" in2="BackgroundImageFix" result="effect1_dropShadow_536_1275"/>
<feBlend mode="normal" in="SourceGraphic" in2="effect1_dropShadow_536_1275" result="shape"/>
</filter>
<clipPath id="clip0_536_1275">
<rect width="40" height="40" fill="white" transform="translate(41 40)"/>
</clipPath>
</defs>
</svg>
