<svg width="24" height="26" viewBox="0 0 24 26" fill="none" xmlns="http://www.w3.org/2000/svg">
<circle cx="17.1638" cy="7" r="6" fill="black"/>
<circle cx="6.16382" cy="18" r="6" fill="black"/>
<path d="M0.404177 13.0167C0.182696 13.0167 0.00551166 12.8389 0.00551166 12.6166C-0.0387845 11.1052 0.182696 9.63814 0.714251 8.21558C1.24581 6.88193 1.99884 5.63719 2.97336 4.61473C3.94787 3.54781 5.09957 2.70316 6.42846 2.12525C7.75735 1.50288 9.21912 1.14724 10.7252 1.10278C10.9467 1.10278 11.1682 1.2806 11.1682 1.50288C11.1682 1.72515 10.991 1.94743 10.7695 1.94743C8.02312 2.03634 5.49824 3.19217 3.6378 5.19264C1.77736 7.19312 0.758547 9.81596 0.847139 12.5722C0.847139 12.7944 0.669954 12.9723 0.404177 13.0167C0.448473 13.0167 0.448473 13.0167 0.404177 13.0167Z" fill="black"/>
<path d="M9.04196 3.10318L8.95337 0.169154C8.95337 0.0357889 9.08626 -0.053121 9.17485 0.035789L11.744 1.41389C11.8769 1.45835 11.8769 1.63617 11.744 1.68062L9.26344 3.23655C9.17485 3.32546 9.04196 3.23655 9.04196 3.10318ZM9.83929 1.63617C9.83929 1.76953 9.97218 1.85844 10.1051 1.76953C10.1937 1.68062 10.1937 1.54726 10.1051 1.5028C9.97218 1.41389 9.83929 1.5028 9.83929 1.63617Z" fill="black"/>
<path d="M12.4971 24.7528C12.2756 24.7528 12.0984 24.575 12.0984 24.3527C12.0984 24.1304 12.2756 23.9082 12.4971 23.9082C18.1227 23.7303 22.5523 18.9292 22.3751 13.2834C22.3751 13.0611 22.5523 12.8389 22.7738 12.8389C22.9953 12.8389 23.1724 13.0167 23.1724 13.239C23.2167 14.7504 22.9953 16.2174 22.4637 17.5956C21.9321 18.9292 21.1791 20.1739 20.2046 21.1964C19.2301 22.2633 18.0784 23.108 16.7495 23.6859C15.4206 24.3527 14.0031 24.7083 12.4971 24.7528Z" fill="black"/>
<path d="M14.0475 25.7751L11.4783 24.397C11.3454 24.3526 11.3454 24.1747 11.4783 24.1303L13.9589 22.5744C14.0475 22.4855 14.2247 22.5744 14.2247 22.7077L14.3133 25.6418C14.269 25.7751 14.1361 25.864 14.0475 25.7751ZM13.1616 24.3526C13.2945 24.397 13.4274 24.3081 13.3831 24.2192C13.3831 24.0858 13.2502 23.9969 13.1173 24.0858C13.0287 24.1303 13.0287 24.3081 13.1616 24.3526Z" fill="black"/>
<path d="M2.61914 16.4177H6.6058V17.0846H2.61914V16.4177ZM2.61914 17.8403H6.6058V18.5071H2.61914V17.8403ZM8.55483 19.3962C8.24476 20.5521 7.44743 21.3078 6.07424 21.3078C4.2581 21.3078 3.32788 19.8408 3.32788 17.618C3.32788 15.2175 4.47958 13.8394 6.16284 13.8394C7.7132 13.8394 8.42194 14.8174 8.55483 15.7509H7.53602C7.31454 15.0841 6.91587 14.684 6.07424 14.684C4.87825 14.684 4.34669 15.7509 4.34669 17.5736C4.34669 19.3518 4.92254 20.4187 6.07424 20.4187C6.78298 20.4187 7.22594 20.152 7.53602 19.3962H8.55483Z" fill="white"/>
<path d="M15.2877 8.74894C15.4206 8.74894 15.5535 8.83785 15.5978 8.97121C15.8636 9.63804 16.4837 9.94922 17.3254 9.94922C18.2556 9.94922 18.8314 9.54913 18.8314 8.83785C18.8314 8.25993 18.5657 7.81538 17.1039 7.5042C15.2877 7.1041 14.7119 6.52619 14.7119 5.45927C14.7119 4.48126 15.5092 3.54771 17.1482 3.54771C18.6542 3.54771 19.363 4.21453 19.6288 4.92581C19.7174 5.14809 19.5402 5.37036 19.3187 5.37036H18.9643C18.8314 5.37036 18.6985 5.28145 18.6542 5.14809C18.4771 4.70354 18.0341 4.3479 17.1039 4.3479C16.0408 4.3479 15.775 4.8369 15.775 5.3259C15.775 5.90382 16.1294 6.215 17.4582 6.48173C19.4959 6.92628 19.9388 7.72647 19.9388 8.61557C19.9388 9.81586 19.0086 10.6605 17.2811 10.6605C15.9079 10.6605 14.9777 10.0826 14.6676 9.10458C14.579 8.8823 14.7562 8.66003 14.9777 8.66003H15.2877V8.74894ZM16.9267 11.3718V3.19207C16.9267 3.01425 17.0596 2.83643 17.2811 2.83643C17.4582 2.83643 17.6354 2.96979 17.6354 3.19207V11.3718C17.6354 11.5496 17.5025 11.7274 17.2811 11.7274C17.1039 11.7274 16.9267 11.5941 16.9267 11.3718Z" fill="white"/>
</svg>
