<svg width="49" height="18" viewBox="0 0 49 18" fill="none" xmlns="http://www.w3.org/2000/svg">
<path d="M7.042 11.256C7.042 12.2267 6.762 12.9547 6.202 13.44C5.65133 13.916 4.9 14.154 3.948 14.154H3.836L3.64 15.778C3.04267 15.75 2.744 15.7173 2.744 15.68L2.94 14.098C2.34267 14.042 1.764 13.958 1.204 13.846L0.924 13.79L1.078 12.586C1.81533 12.6887 2.492 12.7587 3.108 12.796L3.486 9.898C2.51533 9.63667 1.82933 9.31467 1.428 8.932C1.02667 8.54933 0.826 7.94733 0.826 7.126C0.826 6.30467 1.09667 5.67933 1.638 5.25C2.18867 4.82067 2.94467 4.606 3.906 4.606H4.158L4.396 2.73H5.292L5.04 4.676L6.832 4.928L6.706 6.132C6.04333 6.05733 5.43667 6.00133 4.886 5.964L4.536 8.666C5.47867 8.93667 6.132 9.24933 6.496 9.604C6.86 9.95867 7.042 10.5093 7.042 11.256ZM2.324 7.126C2.324 7.47133 2.41733 7.73267 2.604 7.91C2.8 8.08733 3.15467 8.26 3.668 8.428L3.99 5.922C2.87933 5.94067 2.324 6.342 2.324 7.126ZM5.53 11.34C5.53 11.0227 5.44133 10.7753 5.264 10.598C5.096 10.4207 4.79267 10.2667 4.354 10.136L4.004 12.824C5.02133 12.7867 5.53 12.292 5.53 11.34ZM12.16 14.154C10.76 14.154 9.80798 13.7667 9.30398 12.992C8.80932 12.2173 8.56198 10.9433 8.56198 9.17C8.56198 7.39667 8.81398 6.13667 9.31798 5.39C9.82198 4.634 10.7693 4.256 12.16 4.256C12.9907 4.256 13.9053 4.37267 14.904 4.606L14.848 5.866C14.008 5.71667 13.168 5.642 12.328 5.642C11.488 5.642 10.9187 5.894 10.62 6.398C10.3213 6.89267 10.172 7.83067 10.172 9.212C10.172 10.584 10.3167 11.522 10.606 12.026C10.8953 12.5207 11.46 12.768 12.3 12.768C13.14 12.768 13.9893 12.698 14.848 12.558L14.89 13.846C13.9287 14.0513 13.0187 14.154 12.16 14.154ZM15.7292 14L18.0952 4.41H21.1892L23.5692 14H22.0012L21.4832 11.942H17.8012L17.2832 14H15.7292ZM19.2992 5.712L18.1092 10.57H21.1752L19.9992 5.712H19.2992ZM28.2541 14H24.9361V4.41H28.2541C29.7287 4.41 30.7367 4.78333 31.2781 5.53C31.8194 6.27667 32.0901 7.448 32.0901 9.044C32.0901 9.856 32.0341 10.5467 31.9221 11.116C31.8194 11.676 31.6327 12.1847 31.3621 12.642C30.8301 13.5473 29.7941 14 28.2541 14ZM30.4801 9.044C30.4801 7.88667 30.3354 7.05133 30.0461 6.538C29.7567 6.02467 29.1594 5.768 28.2541 5.768H26.4901V12.628H28.2541C29.1781 12.628 29.7941 12.2873 30.1021 11.606C30.2514 11.2607 30.3494 10.892 30.3961 10.5C30.4521 10.108 30.4801 9.62267 30.4801 9.044Z" fill="black"/>
<path d="M38 8L43 13L48 8" stroke="black"/>
</svg>
