<svg width="30" height="29" viewBox="0 0 30 29" fill="none" xmlns="http://www.w3.org/2000/svg">
<path d="M0.955566 13.7847C1.00902 12.343 1.00902 10.2072 1.11592 8.01795C1.22283 6.30929 1.65044 4.76081 2.71948 3.37252C3.89543 1.82404 5.44553 0.916313 7.31635 0.542543C8.22504 0.382355 9.13372 0.275564 10.0424 0.275564C12.6615 0.222168 15.2272 0.222168 17.8464 0.222168C19.2896 0.222168 20.7863 0.275564 22.2295 0.382355C24.3675 0.595939 26.1849 1.39688 27.5747 3.05214C28.4299 4.06666 28.911 5.18797 29.1782 6.46947C29.392 7.4306 29.4455 8.33833 29.4455 9.29945C29.4455 12.61 29.4455 15.9205 29.4455 19.2845C29.4455 20.6728 29.3386 22.061 28.8575 23.4493C27.9488 25.9589 26.2384 27.5074 23.6727 28.2549C22.6571 28.5219 21.588 28.6287 20.5724 28.6287C16.7239 28.7355 12.8219 28.7889 8.97336 28.5753C7.3698 28.5219 5.87315 28.0948 4.4834 27.187C2.77293 26.0123 1.70389 24.4105 1.32973 22.3814C1.16937 21.4737 1.06247 20.566 1.06247 19.6582C0.955566 17.9496 0.955566 16.2409 0.955566 13.7847ZM15.2272 26.1725C16.9377 26.1725 18.7016 26.1191 20.4121 26.1191C21.2673 26.1191 22.0691 26.0657 22.8709 25.8521C24.5279 25.425 25.7573 24.4639 26.3453 22.8086C26.7194 21.9009 26.8263 20.9397 26.8263 19.9252C26.8263 16.2943 26.8263 12.7168 26.8263 9.08587C26.8263 8.44512 26.7194 7.75097 26.6125 7.11022C26.1849 4.97439 24.8486 3.6395 22.7105 3.10554C21.6415 2.89196 20.5724 2.83856 19.45 2.83856C16.8843 2.83856 14.372 2.83856 11.8063 2.83856C10.5235 2.83856 9.18717 2.83856 7.90432 3.05214C5.8197 3.47931 4.42994 4.65402 3.89543 6.68306C3.62817 7.69758 3.57471 8.7121 3.57471 9.72662C3.52126 12.076 3.52126 14.4788 3.52126 16.8283C3.52126 18.003 3.52126 19.1777 3.62817 20.3524C3.68162 21.0465 3.78852 21.7407 3.94888 22.4348C4.37649 24.0367 5.44553 25.1046 7.04909 25.6386C8.01123 25.9589 9.02682 26.0657 10.0424 26.0657C11.7529 26.1191 13.5168 26.1725 15.2272 26.1725Z" fill="white"/>
<path d="M15.2272 21.794C11.1649 21.794 7.9043 18.4835 7.9043 14.4788C7.9043 10.4207 11.2183 7.16357 15.2272 7.16357C19.2896 7.21697 22.5501 10.4741 22.5501 14.4788C22.5501 18.5369 19.2361 21.794 15.2272 21.794ZM15.2272 19.231C17.8464 19.231 19.9844 17.0952 19.9844 14.4788C19.9844 11.8624 17.8464 9.72657 15.2272 9.72657C12.6081 9.72657 10.5234 11.809 10.47 14.4788C10.47 17.0952 12.6081 19.231 15.2272 19.231Z" fill="white"/>
<path d="M24.528 6.89642C24.528 7.85754 23.7262 8.60508 22.8175 8.60508C21.9088 8.60508 21.107 7.80414 21.1605 6.84302C21.1605 5.8819 21.9623 5.13435 22.9244 5.18775C23.8331 5.18775 24.528 5.93529 24.528 6.89642Z" fill="white"/>
</svg>
