<svg width="121" height="107" viewBox="0 0 121 107" fill="none" xmlns="http://www.w3.org/2000/svg">
<path d="M34.9344 106.177C31.8856 106.177 28.9638 104.531 27.4394 101.872L1.90551 57.8053C0.381105 55.1462 0.381105 51.8538 1.90551 49.1947L27.5029 5.06509C29.0273 2.40592 31.8856 0.759766 34.9979 0.759766H86.0656C89.1144 0.759766 92.0362 2.40592 93.5606 5.06509L119.094 49.1314C120.619 51.7905 120.619 55.0828 119.094 57.742L93.5606 101.808C92.0362 104.467 89.178 106.114 86.0656 106.114H34.9344V106.177Z" fill="white"/>
<path d="M86.0663 1.51953C88.8611 1.51953 91.4653 3.03905 92.8626 5.44497L118.396 49.5112C119.794 51.9172 119.794 54.9562 118.396 57.3621L92.8626 101.428C91.4653 103.834 88.8611 105.354 86.0663 105.354H34.9351C32.1403 105.354 29.5361 103.834 28.1388 101.428L2.60491 57.4254C1.20754 55.0195 1.20754 51.9805 2.60491 49.5746L28.1388 5.44497C29.5361 3.03905 32.1403 1.51953 34.9351 1.51953H86.0663ZM86.0663 0H34.9351C31.5687 0 28.4564 1.77278 26.8049 4.68521L1.27105 48.8148C-0.38039 51.7272 -0.38039 55.2728 1.27105 58.1852L26.8049 102.251C28.4564 105.164 31.5687 106.937 34.9351 106.937H86.0028C89.3692 106.937 92.4815 105.164 94.133 102.251L119.667 58.1852C121.318 55.2728 121.318 51.7272 119.667 48.8148L94.1965 4.68521C92.5451 1.77278 89.4327 0 86.0663 0Z" fill="#CD524E"/>
<path d="M58.1181 17.6012C59.8966 17.6012 61.675 18.0444 63.1994 18.9941L89.0509 33.8728C91.401 35.2657 93.116 37.4184 93.8147 40.0776C94.5134 42.7367 94.1323 45.4592 92.7984 47.8018L71.7742 84.1438C70.885 85.7267 69.5511 87.0563 67.9632 87.9426C66.4388 88.829 64.6603 89.2722 62.8819 89.2722C61.1034 89.2722 59.3249 88.829 57.8005 87.8793L31.949 73.0006C29.5989 71.6077 27.884 69.4551 27.1853 66.7959C26.4866 64.1367 26.8677 61.4142 28.2015 59.0716L49.2257 22.7296C50.1149 21.1468 51.4488 19.8172 53.0367 18.9308C54.6246 18.0444 56.4031 17.6012 58.1181 17.6012ZM58.1181 13.6758C53.2273 13.6758 48.4 16.2083 45.7958 20.7669L24.7716 57.0456C20.8336 63.8202 23.1837 72.4941 29.98 76.4196L55.8315 91.2983C58.0546 92.5645 60.5317 93.1977 62.9454 93.1977C67.8362 93.1977 72.6635 90.6651 75.2677 86.1066L96.2918 49.7645C100.23 42.99 97.8798 34.316 91.0834 30.3906L65.232 15.5119C63.0089 14.2456 60.5317 13.6758 58.1181 13.6758Z" fill="#E24648"/>
<path d="M88.3523 43.623C88.0347 41.2171 87.0185 39.0645 85.1765 37.4183C84.2237 36.5952 82.8264 35.6455 81.683 35.0757C76.9828 32.4165 71.9649 29.6307 67.2647 26.9716C66.8836 26.7816 66.566 26.4651 66.3119 26.0852C65.2956 24.8189 64.0888 24.629 63.2631 24.7556C61.6752 24.9455 60.5954 25.9585 60.1508 27.4781C60.0237 27.858 59.8967 28.2378 59.7061 28.5544C57.483 32.5432 55.2599 36.4686 53.0368 40.4574L50.4326 45.0793L56.1492 48.3716L69.8689 56.0325C73.1718 57.8686 74.2515 61.9207 72.4095 65.213C70.5676 68.442 66.6295 69.5816 63.2631 67.7455L48.8447 59.5781L46.177 64.2633L60.5954 72.3674C66.1849 75.5331 73.934 73.7603 76.8557 69.8982C78.9518 67.1757 79.6505 64.0733 79.3964 60.6544C79.2059 58.6284 79.714 57.8686 81.556 56.9189C82.6993 56.2858 83.9697 55.6526 84.9224 54.7662C88.1618 51.7272 88.924 47.8651 88.3523 43.623ZM55.514 44.8893C55.0694 45.7124 53.9896 46.029 53.1639 45.5224C52.3382 45.0793 52.0206 44.0029 52.5287 43.1798C52.9733 42.3568 54.0531 42.0402 54.8788 42.5467C55.641 42.9899 55.9586 44.0662 55.514 44.8893ZM61.7387 26.8449C62.1833 26.0219 63.2631 25.7053 64.0888 26.2118C64.9145 26.655 65.2321 27.7313 64.724 28.5544C64.2794 29.3775 63.1996 29.694 62.3739 29.1875C61.5481 28.7443 61.2305 27.668 61.7387 26.8449ZM81.6195 48.8148C79.7775 52.0438 75.776 53.1834 72.4731 51.3473L58.0547 43.2432L56.7844 42.5467L62.6914 32.1L63.3901 30.8337L64.6605 31.5301C64.6605 31.5301 73.8069 36.6585 79.0788 39.6343C82.3817 41.4704 83.4615 45.5858 81.6195 48.8148Z" fill="#E24648"/>
<path d="M41.6671 65.9094C36.2046 62.2372 38.9994 56.9189 38.9994 56.9189C40.7779 53.8165 44.6524 52.1704 48.2729 54.2597L62.8183 62.4272C62.8183 62.4905 63.4535 61.2875 63.4535 61.2875C63.771 60.6544 64.4697 59.5147 64.4697 59.5147L65.1049 58.3751L50.4325 50.1443C48.3999 49.0047 45.4146 45.5857 48.0823 40.8372C48.0823 40.8372 52.5285 32.9863 52.7191 32.6065C47.6377 32.2899 40.9049 39.0011 42.6199 47.6751C42.7469 48.2449 42.4293 48.7514 41.9847 49.0047C41.159 49.3846 40.3968 49.8278 39.6981 50.1443C32.076 54.1331 31.6949 63.1236 36.7128 67.9355C37.7926 68.9485 39.3805 69.8982 39.3805 69.8982L53.9259 78.0656L56.2125 74.0136" fill="#E24648"/>
<path d="M62.8818 40.3942L64.7238 37.1652C64.8508 36.9753 65.1049 36.8487 65.3589 36.9753L74.3148 41.9771L72.0282 45.9658L63.0088 40.9007C62.8182 40.9007 62.7547 40.5842 62.8818 40.3942Z" fill="#E24648"/>
<path d="M68.4078 58.5651C66.5658 57.5521 64.2792 58.1852 63.2629 60.0213C62.2466 61.8574 62.8818 64.1367 64.7238 65.1497C66.5658 66.1627 68.8524 65.5296 69.8687 63.6935C70.885 61.8574 70.1863 59.5781 68.4078 58.5651ZM68.0267 62.6805C67.5821 63.5035 66.5023 63.8201 65.6766 63.3136C64.8508 62.8704 64.5333 61.7941 65.0414 60.971C65.486 60.1479 66.5658 59.8313 67.3915 60.3379C68.2172 60.8444 68.5348 61.8574 68.0267 62.6805Z" fill="#E24648"/>
<path d="M59.5155 74.267C57.6735 73.254 55.3868 73.8871 54.3706 75.7232C53.3543 77.5593 53.9895 79.8386 55.8315 80.8516C57.6735 81.8646 59.9601 81.2315 60.9763 79.3954C61.9926 77.5593 61.3575 75.28 59.5155 74.267ZM59.1979 78.3824C58.7533 79.2054 57.6735 79.522 56.8477 79.0155C56.022 78.509 55.7044 77.496 56.2126 76.6729C56.6572 75.8498 57.737 75.5332 58.5627 76.0398C59.3249 76.5463 59.6425 77.5593 59.1979 78.3824Z" fill="#E24648"/>
<path d="M77.6178 42.2301C75.7758 41.2171 73.4891 41.8502 72.4729 43.6863C71.4566 45.5224 72.0918 47.8017 73.9338 48.8147C75.7758 49.8277 78.0624 49.1946 79.0787 47.3585C80.0949 45.5224 79.4598 43.2431 77.6178 42.2301ZM77.3002 46.3455C76.8556 47.1686 75.7758 47.4851 74.95 46.9786C74.1243 46.5354 73.8067 45.4591 74.3149 44.636C74.7595 43.813 75.8393 43.4964 76.665 44.0029C77.4272 44.4461 77.7448 45.5224 77.3002 46.3455Z" fill="#E24648"/>
<path d="M55.8314 40.7741C53.9894 39.761 51.7028 40.3942 50.6865 42.2303C49.6702 44.0664 50.3054 46.3457 52.1474 47.3587C53.9894 48.3717 56.276 47.7386 57.2923 45.9025C58.3085 44.0664 57.6734 41.7871 55.8314 40.7741ZM55.5138 44.8894C55.0692 45.7125 53.9894 46.0291 53.1637 45.5226C52.3379 45.0794 52.0203 44.003 52.5285 43.18C52.9731 42.3569 54.0529 42.0403 54.8786 42.5468C55.6408 42.99 55.9584 44.0664 55.5138 44.8894Z" fill="#E24648"/>
<path d="M65.0413 24.439C63.2629 23.426 60.9762 24.0591 59.8965 25.8319C58.8802 27.668 59.5153 29.9473 61.3573 30.9603C63.1993 31.9733 65.486 31.3402 66.5022 29.5041C67.5185 27.7313 66.8833 25.452 65.0413 24.439ZM64.7238 28.5544C64.2791 29.3775 63.1993 29.6941 62.3736 29.1875C61.5479 28.7444 61.2303 27.668 61.7384 26.8449C62.1831 26.0219 63.2629 25.7053 64.0886 26.2118C64.8508 26.655 65.1684 27.7313 64.7238 28.5544Z" fill="#E24648"/>
<path d="M46.7486 56.7923C44.7796 55.6527 42.2389 56.3491 41.0956 58.3752C39.9523 60.3379 40.651 62.8704 42.6835 64.0101C44.6526 65.1497 47.1932 64.4533 48.3365 62.4273C49.4799 60.4645 48.7812 57.932 46.7486 56.7923ZM46.2405 61.2243C45.7959 62.0474 44.7161 62.3639 43.8904 61.8574C43.0646 61.3509 42.747 60.3379 43.2552 59.5148C43.6998 58.6917 44.7796 58.3752 45.6053 58.8817C46.431 59.3882 46.6851 60.4012 46.2405 61.2243Z" fill="#E24648"/>
</svg>
